HIERARCHY
ROOT Hips
{
    OFFSET   0.000000   0.000000   0.000000
    CHANNELS 6 Xposition Yposition Zposition Zrotation Xrotation Yrotation
    JOINT Chest
    {
        OFFSET   0.000000   8.007230   0.000000
        CHANNELS 3 Zrotation Xrotation Yrotation
        JOINT Chest2
        {
            OFFSET   0.000000  22.077100   0.000000
            CHANNELS 3 Zrotation Xrotation Yrotation
            JOINT Neck
            {
                OFFSET   0.000000  23.254800  -0.000021
                CHANNELS 3 Zrotation Xrotation Yrotation
                JOINT Head
                {
                    OFFSET   0.000000  14.370000   1.956610
                    CHANNELS 3 Zrotation Xrotation Yrotation
                    End Site
                    {
                        OFFSET   0.000000  19.566000   0.000000
                    }
                }
            }
            JOINT LeftCollar
            {
                OFFSET   3.911900  19.017000  -0.467063
                CHANNELS 3 Zrotation Xrotation Yrotation
                JOINT LeftShoulder
                {
                    OFFSET  10.383700   0.000000   0.000000
                    CHANNELS 3 Zrotation Xrotation Yrotation
                    JOINT LeftElbow
                    {
                        OFFSET  26.662100   0.001529   0.000325
                        CHANNELS 3 Zrotation Xrotation Yrotation
                        JOINT LeftWrist
                        {
                            OFFSET  28.869000  -0.000011  -0.000096
                            CHANNELS 3 Zrotation Xrotation Yrotation
                            JOINT LeftFinger0
                            {
                                OFFSET   2.044650  -2.323460   3.252850
                                CHANNELS 3 Zrotation Xrotation Yrotation
                                JOINT LeftFinger01
                                {
                                    OFFSET   3.088130   0.000000   0.000000
                                    CHANNELS 3 Zrotation Xrotation Yrotation
                                    JOINT LeftFinger02
                                    {
                                        OFFSET   2.639460   0.000000   0.000000
                                        CHANNELS 3 Zrotation Xrotation Yrotation
                                        End Site
                                        {
                                            OFFSET   2.582190   0.000000   0.000000
                                        }
                                    }
                                }
                            }
                            JOINT LeftFinger1
                            {
                                OFFSET   8.364480   0.000000   3.252850
                                CHANNELS 3 Zrotation Xrotation Yrotation
                                JOINT LeftFinger11
                                {
                                    OFFSET   4.646930   0.000000   0.000000
                                    CHANNELS 3 Zrotation Xrotation Yrotation
                                    JOINT LeftFinger12
                                    {
                                        OFFSET   2.323460   0.000000   0.000000
                                        CHANNELS 3 Zrotation Xrotation Yrotation
                                        End Site
                                        {
                                            OFFSET   2.273050   0.000000   0.000000
                                        }
                                    }
                                }
                            }
                            JOINT LeftFinger2
                            {
                                OFFSET   8.364480   0.000016   1.078090
                                CHANNELS 3 Zrotation Xrotation Yrotation
                                JOINT LeftFinger21
                                {
                                    OFFSET   5.111620   0.000000   0.000000
                                    CHANNELS 3 Zrotation Xrotation Yrotation
                                    JOINT LeftFinger22
                                    {
                                        OFFSET   2.788160   0.000017   0.000000
                                        CHANNELS 3 Zrotation Xrotation Yrotation
                                        End Site
                                        {
                                            OFFSET   2.727660   0.000000   0.000000
                                        }
                                    }
                                }
                            }
                            JOINT LeftFinger3
                            {
                                OFFSET   7.899780   0.000015  -1.078090
                                CHANNELS 3 Zrotation Xrotation Yrotation
                                JOINT LeftFinger31
                                {
                                    OFFSET   4.646920   0.000000   0.000000
                                    CHANNELS 3 Zrotation Xrotation Yrotation
                                    JOINT LeftFinger32
                                    {
                                        OFFSET   2.323470   0.000000   0.000000
                                        CHANNELS 3 Zrotation Xrotation Yrotation
                                        End Site
                                        {
                                            OFFSET   2.273050   0.000000   0.000000
                                        }
                                    }
                                }
                            }
                            JOINT LeftFinger4
                            {
                                OFFSET   7.435090   0.000000  -3.252850
                                CHANNELS 3 Zrotation Xrotation Yrotation
                                JOINT LeftFinger41
                                {
                                    OFFSET   3.717550   0.000000   0.000000
                                    CHANNELS 3 Zrotation Xrotation Yrotation
                                    JOINT LeftFinger42
                                    {
                                        OFFSET   1.858760   0.000000   0.000000
                                        CHANNELS 3 Zrotation Xrotation Yrotation
                                        End Site
                                        {
                                            OFFSET   1.818440   0.000000   0.000000
                                        }
                                    }
                                }
                            }
                        }
                    }
                }
            }
            JOINT RightCollar
            {
                OFFSET  -3.911900  19.017000  -0.467062
                CHANNELS 3 Zrotation Xrotation Yrotation
                JOINT RightShoulder
                {
                    OFFSET -10.383700   0.000015   0.000000
                    CHANNELS 3 Zrotation Xrotation Yrotation
                    JOINT RightElbow
                    {
                        OFFSET -26.662100   0.001341   0.000385
                        CHANNELS 3 Zrotation Xrotation Yrotation
                        JOINT RightWrist
                        {
                            OFFSET -28.869000   0.000025  -0.000080
                            CHANNELS 3 Zrotation Xrotation Yrotation
                            JOINT RightFinger0
                            {
                                OFFSET  -2.044650  -2.323490   3.252850
                                CHANNELS 3 Zrotation Xrotation Yrotation
                                JOINT RightFinger01
                                {
                                    OFFSET  -3.088130   0.000000   0.000000
                                    CHANNELS 3 Zrotation Xrotation Yrotation
                                    JOINT RightFinger02
                                    {
                                        OFFSET  -2.639460   0.000000   0.000000
                                        CHANNELS 3 Zrotation Xrotation Yrotation
                                        End Site
                                        {
                                            OFFSET  -2.582190   0.000000   0.000000
                                        }
                                    }
                                }
                            }
                            JOINT RightFinger1
                            {
                                OFFSET  -8.364480   0.000000   3.252850
                                CHANNELS 3 Zrotation Xrotation Yrotation
                                JOINT RightFinger11
                                {
                                    OFFSET  -4.646930   0.000000   0.000000
                                    CHANNELS 3 Zrotation Xrotation Yrotation
                                    JOINT RightFinger12
                                    {
                                        OFFSET  -2.323470   0.000000   0.000000
                                        CHANNELS 3 Zrotation Xrotation Yrotation
                                        End Site
                                        {
                                            OFFSET  -2.273050   0.000000   0.000000
                                        }
                                    }
                                }
                            }
                            JOINT RightFinger2
                            {
                                OFFSET  -8.364480   0.000000   1.078090
                                CHANNELS 3 Zrotation Xrotation Yrotation
                                JOINT RightFinger21
                                {
                                    OFFSET  -5.111610   0.000000   0.000000
                                    CHANNELS 3 Zrotation Xrotation Yrotation
                                    JOINT RightFinger22
                                    {
                                        OFFSET  -2.788160   0.000000   0.000000
                                        CHANNELS 3 Zrotation Xrotation Yrotation
                                        End Site
                                        {
                                            OFFSET  -2.727660   0.000000   0.000000
                                        }
                                    }
                                }
                            }
                            JOINT RightFinger3
                            {
                                OFFSET  -7.899780   0.000000  -1.078090
                                CHANNELS 3 Zrotation Xrotation Yrotation
                                JOINT RightFinger31
                                {
                                    OFFSET  -4.646920   0.000000   0.000000
                                    CHANNELS 3 Zrotation Xrotation Yrotation
                                    JOINT RightFinger32
                                    {
                                        OFFSET  -2.323470   0.000000   0.000000
                                        CHANNELS 3 Zrotation Xrotation Yrotation
                                        End Site
                                        {
                                            OFFSET  -2.273050   0.000000   0.000000
                                        }
                                    }
                                }
                            }
                            JOINT RightFinger4
                            {
                                OFFSET  -7.435090   0.000000  -3.252850
                                CHANNELS 3 Zrotation Xrotation Yrotation
                                JOINT RightFinger41
                                {
                                    OFFSET  -3.717550   0.000000   0.000000
                                    CHANNELS 3 Zrotation Xrotation Yrotation
                                    JOINT RightFinger42
                                    {
                                        OFFSET  -1.858770   0.000000   0.000000
                                        CHANNELS 3 Zrotation Xrotation Yrotation
                                        End Site
                                        {
                                            OFFSET  -1.818440   0.000000   0.000000
                                        }
                                    }
                                }
                            }
                        }
                    }
                }
            }
        }
    }
    JOINT LeftHip
    {
        OFFSET   9.783010   0.000000   0.000000
        CHANNELS 3 Zrotation Xrotation Yrotation
        JOINT LeftKnee
        {
            OFFSET   0.000070 -41.789100   0.000028
            CHANNELS 3 Zrotation Xrotation Yrotation
            JOINT LeftAnkle
            {
                OFFSET   0.000087 -41.133200  -0.000100
                CHANNELS 3 Zrotation Xrotation Yrotation
                JOINT LeftToe
                {
                    OFFSET   0.000000  -6.358960  14.674500
                    CHANNELS 3 Zrotation Xrotation Yrotation
                    End Site
                    {
                        OFFSET   0.000000   0.000000   3.913200
                    }
                }
            }
        }
    }
    JOINT RightHip
    {
        OFFSET  -9.783020   0.000000   0.000000
        CHANNELS 3 Zrotation Xrotation Yrotation
        JOINT RightKnee
        {
            OFFSET   0.000044 -41.789100  -0.000870
            CHANNELS 3 Zrotation Xrotation Yrotation
            JOINT RightAnkle
            {
                OFFSET  -0.000090 -41.133200  -0.000245
                CHANNELS 3 Zrotation Xrotation Yrotation
                JOINT RightToe
                {
                    OFFSET   0.000000  -6.358960  14.674500
                    CHANNELS 3 Zrotation Xrotation Yrotation
                    End Site
                    {
                        OFFSET   0.000000   0.000000   3.913200
                    }
                }
            }
        }
    }
}
MOTION
Frames: 5
Frame Time:   0.016667
 -0.651925  89.574100  -0.886200  -1.428280 -18.239100   6.935950  -0.044300   9.741560   4.504710  -0.898011  19.448400   9.221570  -5.507580   5.150600   0.496897  -9.247490  10.154200  22.610600  -2.574880  -0.112119  -5.349270 -23.701500  13.582400 -60.290400  41.604000  10.669300 -73.635100  12.372100  32.411300 -12.371700  36.403200  37.883200 -69.682500 -39.321400  -0.001772  -0.001378 -15.283700   0.000000  -0.001036 -30.327800  10.294700 -16.986900 -26.074800  -0.007681   0.002659 -18.252300  -0.004394   0.011561 -28.277600   4.275210  -7.889590 -37.027100   0.000700   0.003029 -24.660100   0.001107   0.004963 -27.941300   4.228660  -7.914540 -33.670500  -0.000158   0.004305 -22.424600  -0.002809   0.006172 -29.737100   1.289840  -2.256530 -44.643800  -0.001231   0.000398 -29.732700  -0.000871   0.000546   5.610890  -2.629230   4.737810  35.495700  23.294800  46.302900 -30.013500 -21.688400  93.619700  -2.099180  24.660100   8.525640 -43.085200  35.497200  76.503700  22.162700   0.000000  -0.000156   6.081330   0.002185  -0.007945  35.009800   6.738870   9.509850  29.103400  -0.008383   0.000094  20.372400   0.001119   0.001326  80.809100   0.001434   0.001954  80.809000   0.001319  -0.000447  60.606800   0.004781  -0.007601  84.177900  -4.968230  -0.506575  84.199800   0.002082  -0.001020  63.149800   0.002563  -0.007929  88.982400  -9.997180  -0.180738 110.000000  -0.002356  -0.001401  79.999900   0.001393   0.003130   4.130140  17.851300   2.409240   1.670540   0.037783   1.571010  -2.763310  -1.046270  -0.386379  -0.000000   0.000000   0.000000   5.158040  18.654100  -8.653200  -0.617074   2.839190 -13.601900   0.314891  -4.703580  -1.618340   0.000000   0.000000   0.000000
 -0.640697  89.569200  -0.858134  -1.432950 -18.205500   6.916210  -0.019039   9.714430   4.451780  -0.834488  19.397000   9.107640  -5.497050   5.151600   0.496187  -9.226540  10.156900  22.603100  -2.589250  -0.078367  -5.311660 -23.773900  13.533800 -60.199200  41.542100  10.641200 -73.604900  12.501700  32.523700 -12.496000  36.266400  37.727500 -69.624500 -39.400000  -0.001769  -0.001415 -15.345800   0.000000  -0.001046 -30.462600  10.280400 -16.880000 -26.169100  -0.007741   0.002628 -18.318300  -0.004449   0.011679 -28.287000   4.241040  -7.824250 -37.102800   0.000571   0.003017 -24.710500   0.000968   0.005090 -27.955300   4.195470  -7.848690 -33.747200  -0.000279   0.004323 -22.475700  -0.002890   0.006346 -29.812500   1.277270  -2.227780 -44.756100  -0.001319   0.000497 -29.807500  -0.000945   0.000567   5.598510  -2.591880   4.737150  35.462400  23.256300  46.339400 -30.039500 -21.764600  93.620200  -1.957500  24.560900   8.494110 -42.881300  35.357000  76.418000  22.416200   0.000000  -0.000134   6.208060   0.002295  -0.008139  35.095700   6.671390   9.387790  29.163300  -0.008387   0.000127  20.414300   0.001116   0.001373  80.845500   0.001361   0.001904  80.845400   0.001255  -0.000559  60.634000   0.004755  -0.007992  84.226600  -4.968250  -0.502487  84.248400   0.002053  -0.001058  63.186200   0.002530  -0.007950  88.982700  -9.997220  -0.180821 110.000000  -0.002389  -0.001282  79.999900   0.001385   0.003041   4.133990  17.828300   2.427270   1.660070   0.055163   1.574400  -2.763590  -1.075020  -0.385585  -0.000000   0.000000   0.000000   5.147700  18.653800  -8.633100  -0.609321   2.810590 -13.603000   0.317363  -4.704210  -1.605750   0.000000   0.000000   0.000000
 -0.630491  89.566800  -0.830377  -1.441890 -18.176400   6.880280   0.006619   9.686750   4.398030  -0.770034  19.344500   8.992000  -5.458290   5.151740   0.491214  -9.165710  10.161100  22.549200  -2.604840  -0.041480  -5.256580 -23.811700  13.513500 -60.158100  41.457700  10.594300 -73.523000  12.592500  32.594300 -12.625400  36.054200  37.513500 -69.442800 -39.477800  -0.001765  -0.001453 -15.411700   0.000000  -0.001055 -30.559600  10.240800 -16.757300 -26.240600  -0.007801   0.002599 -18.368400  -0.004504   0.011796 -28.295900   4.201090  -7.749000 -37.134600   0.000443   0.003004 -24.731600   0.000825   0.005219 -27.967200   4.156510  -7.772900 -33.803200  -0.000398   0.004342 -22.513000  -0.002972   0.006521 -29.876800   1.266470  -2.203300 -44.851800  -0.001403   0.000595 -29.871300  -0.001021   0.000588   5.588620  -2.580640   4.733510  35.379700  23.221800  46.404200 -30.210800 -21.787000  93.546700  -1.854450  24.522200   8.487940 -42.492000  35.108700  76.249100  22.648000   0.000000  -0.000117   6.323990   0.002420  -0.008333  35.182100   6.591940   9.249730  29.222200  -0.008391   0.000154  20.455500   0.001114   0.001425  80.855200   0.001299   0.001852  80.855200   0.001191  -0.000668  60.641300   0.004730  -0.008378  84.243300  -4.968260  -0.501160  84.265000   0.002025  -0.001092  63.198700   0.002497  -0.007973  88.982900  -9.997260  -0.180890 110.000000  -0.002421  -0.001162  79.999900   0.001376   0.002951   4.134580  17.814200   2.444830   1.653480   0.069972   1.581930  -2.763940  -1.103640  -0.380005  -0.000000   0.000000  -0.000000   5.136600  18.654600  -8.610200  -0.601397   2.785800 -13.602900   0.320584  -4.705420  -1.591550  -0.000000   0.000000  -0.000000
 -0.623442  89.567900  -0.804128  -1.456330 -18.155500   6.824850   0.031144   9.660130   4.347750  -0.710390  19.293800   8.883850  -5.348440   5.107050   0.476481  -8.982320  10.084200  22.363000  -2.620170   0.001945  -5.174920 -23.790500  13.519900 -60.176000  41.427700  10.553700 -73.387300  12.628500  32.577500 -12.782500  35.900900  37.268500 -69.136400 -39.540400  -0.001766  -0.001418 -15.474100   0.000000  -0.001065 -30.599900  10.181500 -16.632700 -26.265000  -0.007867   0.002555 -18.385500  -0.004552   0.011912 -28.302300   4.154920  -7.662980 -37.129700   0.000318   0.002989 -24.728400   0.000670   0.005365 -27.978800   4.111530  -7.686240 -33.846200  -0.000511   0.004368 -22.541600  -0.003042   0.006677 -29.943300   1.255270  -2.177980 -44.950800  -0.001480   0.000679 -29.937200  -0.001105   0.000610   5.589220  -2.615370   4.722950  35.322300  23.190800  46.442600 -30.142600 -21.549200  93.309900  -1.818840  24.499800   8.623620 -42.155600  34.816600  75.999300  22.806100  -0.000031  -0.000113   6.403070   0.002566  -0.008527  35.305400   6.513840   9.101950  29.313600  -0.008394   0.000176  20.519500   0.001109   0.001475  80.852400   0.001249   0.001794  80.852400   0.001128  -0.000770  60.639200   0.004712  -0.008757  84.211600  -4.968250  -0.503800  84.233500   0.001996  -0.001122  63.175100   0.002463  -0.007998  88.983100  -9.997280  -0.180947 110.000000  -0.002457  -0.001031  79.999900   0.001356   0.002862   4.127050  17.811800   2.467740   1.653690   0.080506   1.590850  -2.764070  -1.131540  -0.358154  -0.000000   0.000000   0.000000   5.132630  18.657100  -8.579170  -0.598284   2.767460 -13.596200   0.323158  -4.706860  -1.571080  -0.000000   0.000000   0.000000
 -0.620341  89.572300  -0.777370  -1.473530 -18.139300   6.759020   0.047531   9.635020   4.307490  -0.665902  19.245500   8.797530  -5.152630   5.004470   0.450374  -8.642850   9.900890  21.977100  -2.635390   0.044653  -5.094920 -23.743200  13.538800 -60.222500  41.404900  10.511600 -73.218500  12.611400  32.562500 -12.879100  35.799700  37.071200 -68.834700 -39.593700  -0.001767  -0.001383 -15.532400   0.000000  -0.001074 -30.635100  10.111100 -16.511200 -26.268500  -0.007933   0.002510 -18.388000  -0.004600   0.012025 -28.307500   4.104100  -7.568780 -37.116300   0.000201   0.002975 -24.719500   0.000510   0.005508 -27.989400   4.061870  -7.591410 -33.873600  -0.000623   0.004396 -22.559800  -0.003114   0.006832 -30.004600   1.244900  -2.154660 -45.042000  -0.001557   0.000762 -29.998000  -0.001189   0.000630   5.595200  -2.699390   4.708270  35.301500  23.149700  46.449800 -29.832500 -21.127000  93.022900  -1.870510  24.468700   8.866370 -42.116200  34.631900  75.835400  22.927400  -0.000080  -0.000109   6.463710   0.002707  -0.008720  35.392900   6.436220   8.966530  29.371500  -0.008398   0.000195  20.560000   0.001104   0.001524  80.832600   0.001213   0.001735  80.832700   0.001061  -0.000867  60.624400   0.004696  -0.009131  84.179900  -4.968230  -0.506441  84.201900   0.001966  -0.001150  63.151500   0.002429  -0.008024  88.983400  -9.997300  -0.180990 110.000000  -0.002492  -0.000898  79.999900   0.001333   0.002772   4.121660  17.811300   2.481570   1.654470   0.085122   1.604070  -2.763980  -1.157890  -0.320725  -0.000000   0.000000   0.000000   5.135290  18.662200  -8.551800  -0.599604   2.751200 -13.581200   0.325846  -4.708380  -1.544940  -0.000000   0.000000   0.000000
